<?xml version="1.0" encoding="utf-8"?>
<!-- Generator: Adobe Illustrator 25.4.1, SVG Export Plug-In . SVG Version: 6.00 Build 0)  -->
<svg version="1.1" xmlns="http://www.w3.org/2000/svg" xmlns:xlink="http://www.w3.org/1999/xlink" x="0px" y="0px"
	 viewBox="0 0 209.5 53.4" style="enable-background:new 0 0 209.5 53.4;" xml:space="preserve">
<style type="text/css">
	.st0{fill:url(#SVGID_1_);}
	.st1{clip-path:url(#SVGID_00000098924493353227422100000013033414424072883343_);}
	.st2{clip-path:url(#SVGID_00000118381442887416125510000016194891483173500290_);}
	.st3{clip-path:url(#SVGID_00000152228970085252913630000009952325921020906126_);}
	.st4{clip-path:url(#SVGID_00000158731736718889569340000004543107155117697449_);}
	.st5{fill:#2F4E9B;}
	.st6{fill:#D10C2B;}
	.st7{fill:#324F9C;}
	.st8{fill:#D2192D;}
</style>
<g id="FONDO">
</g>
<g id="Texto">
</g>
<g id="Imagenes">
</g>
<g id="Guias">
</g>
<g id="Logo">
	<g>
		<path class="st7" d="M64.4,28.4c-0.1,0.3-0.1,0.6-0.2,0.9c-0.5,3.1-1,6.2-1.5,9.3c-0.1,0.4-0.1,0.8-0.2,1.1
			c-0.1,0.3-0.2,0.5-0.6,0.5c-0.5,0-1,0-1.6,0c-0.4,0-0.6-0.2-0.5-0.7c0.2-1,0.4-2,0.6-3.1c0.6-3.2,1.2-6.3,1.7-9.5
			c0.3-1.5,0.6-3,0.8-4.5c0.1-0.3,0.2-0.5,0.5-0.5c0.5-0.1,0.7,0,0.9,0.4c1.7,4.2,3.4,8.4,5.2,12.6c0.1,0.1,0.1,0.3,0.2,0.4
			c0.1,0,0.1-0.1,0.1-0.2c1.7-4.2,3.4-8.5,5.2-12.7c0.2-0.5,0.7-0.6,1.1-0.4c0.2,0.1,0.3,0.2,0.3,0.5c0.9,5,1.8,10,2.7,14.9
			c0.1,0.7,0.3,1.5,0.4,2.2c0.1,0.4-0.1,0.6-0.5,0.6c-0.5,0-1.1,0-1.6,0c-0.3,0-0.5-0.1-0.6-0.5c-0.3-1.6-0.5-3.3-0.8-4.9
			c-0.4-2.1-0.7-4.3-1.1-6.4c0,0,0,0,0,0c-0.1,0-0.1,0.1-0.1,0.2c-1.5,3.8-3,7.6-4.4,11.3c-0.2,0.5-0.8,0.7-1.3,0.4
			c-0.1-0.1-0.2-0.2-0.2-0.4c-1.2-3.1-2.5-6.3-3.7-9.4c-0.3-0.7-0.5-1.3-0.8-2C64.5,28.5,64.5,28.4,64.4,28.4z"/>
		<path class="st8" d="M100.3,9.1c0.8,0.3,1.4,0.7,2,1.3c1.3,1.4,1.5,3.8,0.3,5.5c-0.9,1.4-2.2,2.1-3.8,2.3
			c-0.5,0.1-0.9,0.1-1.4,0.1c-1.8,0-3.6,0-5.4,0c-0.1,0-0.2,0-0.3,0c-0.3,0-0.5-0.2-0.5-0.6c0-0.7,0-1.5,0-2.2c0-4.8,0-9.7,0-14.5
			c0-0.5,0.1-0.7,0.7-0.7c1.9,0,3.8,0,5.8,0c1.4,0,2.7,0.5,3.7,1.4c2.2,2,1.8,5.7-0.8,7.3C100.5,9,100.4,9.1,100.3,9.1z M93.8,13.2
			c0,0.8,0,1.7,0,2.5c0,0.2,0,0.3,0.2,0.3c1.2,0,2.5,0,3.7,0c0.8,0,1.6-0.2,2.1-0.9c0.4-0.4,0.5-1,0.6-1.5c0.2-1.6-1-3.1-2.6-3.1
			c-1.3,0-2.5,0-3.8,0c-0.2,0-0.3,0-0.2,0.2C93.8,11.5,93.8,12.3,93.8,13.2z M93.8,5.4c0,0.8,0,1.7,0,2.5c0,0.1,0,0.2,0.2,0.2
			c1.1,0,2.2,0,3.4,0c1.5,0,2.6-1.2,2.6-2.7c0-1.6-1-2.6-2.6-2.6c-1.1,0-2.2,0-3.3,0c-0.2,0-0.2,0.1-0.2,0.2
			C93.8,3.8,93.8,4.6,93.8,5.4z"/>
		<path class="st8" d="M124.2,9.3c0,5.2-4.2,9.3-9.4,9.2c-5.1,0-9.1-4.2-9.1-9.3c0-5.1,4.2-9.2,9.3-9.2C120.1,0,124.2,4.2,124.2,9.3
			z M114.9,2.5c-3.7,0-6.7,3.1-6.7,6.9c0,3.6,3.1,6.6,6.7,6.6c3.7,0,6.7-3.1,6.6-6.9C121.5,5.6,118.6,2.5,114.9,2.5z"/>
		<path class="st7" d="M81.6,31.2c0-5.1,4.1-9.3,9.2-9.3c5.1,0,9.2,4.1,9.2,9.3c0,5.1-4.1,9.2-9.3,9.2
			C85.7,40.4,81.6,36.3,81.6,31.2z M90.8,37.9c3.7,0,6.7-3,6.7-6.7c0-3.6-3-6.7-6.5-6.8c-3.5-0.1-6.8,2.9-6.8,6.7
			C84.1,34.9,87.2,37.9,90.8,37.9z"/>
		<path class="st7" d="M105.8,27.2c-0.1,0.1,0,0.3,0,0.4c0,4,0,7.9,0,11.9c0,0.6-0.1,0.7-0.7,0.7c-0.4,0-0.9,0-1.3,0
			c-0.3,0-0.5-0.2-0.5-0.5c0-0.1,0-0.1,0-0.2c0-5.6,0-11.1,0-16.7c0-0.3,0-0.6,0.3-0.7c0.3-0.1,0.7-0.1,1,0.1c0.4,0.4,0.7,0.8,1,1.1
			c3.3,3.8,6.6,7.6,9.8,11.4c0,0,0,0.1,0.1,0.1c0,0,0,0,0.1,0c0-0.1,0-0.2,0-0.3c0-3.9,0-7.8,0-11.6c0-0.5,0.1-0.7,0.7-0.7
			c0.5,0,0.9,0,1.4,0c0.4,0,0.6,0.2,0.6,0.6c0,0.1,0,0.1,0,0.2c0,5.5,0,11.1,0,16.6c0,0.3,0,0.6-0.3,0.8c-0.4,0.1-0.8,0-1.1-0.3
			c-0.5-0.6-1.1-1.3-1.6-1.9c-3-3.6-6.1-7.2-9.1-10.8C106,27.4,105.9,27.3,105.8,27.2z"/>
		<path class="st7" d="M149.7,31.2c0-2.8,0-5.5,0-8.3c0-0.5,0.2-0.7,0.7-0.7c2.3,0,4.6,0,6.9,0c2.3,0,4.4,1.5,5.2,3.7
			c0.8,2.3,0,4.8-2.1,6.3c-0.4,0.2-0.7,0.5-1.1,0.6c-0.2,0.1-0.2,0.2-0.1,0.3c1.1,2,2.2,4.1,3.3,6.1c0.1,0.1,0.1,0.3,0.1,0.4
			c0,0.3-0.2,0.4-0.5,0.4c-0.7,0-1.3,0-2,0c-0.3,0-0.5-0.2-0.6-0.4c-0.8-1.6-1.6-3.2-2.4-4.9c-0.2-0.5-0.5-1-0.7-1.5
			c-0.1-0.2-0.2-0.2-0.4-0.2c-1.1,0-2.2,0-3.4,0c-0.2,0-0.3,0.1-0.3,0.3c0,2,0,4.1,0,6.1c0,0.4-0.2,0.6-0.6,0.6c-0.5,0-0.9,0-1.4,0
			c-0.5,0-0.6-0.2-0.6-0.6C149.7,36.7,149.7,34,149.7,31.2z M152.4,27.8c0,1,0,1.9,0,2.9c0,0.2,0,0.3,0.2,0.3c1.5,0,3,0,4.4,0
			c0.1,0,0.2,0,0.3,0c1.6-0.2,2.8-1.7,2.7-3.3c-0.1-1.6-1.5-2.9-3.1-2.9c-1.4,0-2.9,0-4.3,0c-0.2,0-0.2,0.1-0.2,0.2
			C152.4,25.9,152.4,26.8,152.4,27.8z"/>
		<path class="st7" d="M166.1,31.2c0-2.8,0-5.5,0-8.3c0-0.6,0.1-0.7,0.7-0.7c2.3,0,4.5,0,6.8,0c2.3,0,4.3,1.4,5.2,3.5
			c1,2.5,0,5.1-2.3,6.6c-0.3,0.2-0.6,0.4-0.9,0.5c-0.2,0.1-0.2,0.1-0.1,0.3c1.1,2,2.2,4.1,3.3,6.1c0,0.1,0.1,0.2,0.1,0.3
			c0.1,0.3-0.1,0.6-0.4,0.6c-0.7,0-1.4,0-2.1,0c-0.3,0-0.4-0.2-0.5-0.4c-0.7-1.4-1.4-2.8-2.1-4.1c-0.4-0.7-0.8-1.5-1.1-2.2
			c-0.1-0.2-0.2-0.2-0.4-0.2c-1.1,0-2.2,0-3.3,0c-0.2,0-0.3,0-0.3,0.3c0,2,0,4.1,0,6.1c0,0.5-0.2,0.6-0.6,0.6c-0.5,0-0.9,0-1.4,0
			c-0.5,0-0.6-0.2-0.6-0.6c0-1.4,0-2.8,0-4.2C166.1,33.9,166.1,32.6,166.1,31.2z M168.8,27.8c0,1,0,1.9,0,2.9c0,0.1,0,0.2,0.2,0.2
			c1.5,0,3,0,4.6,0c0.1,0,0.1,0,0.2,0c1.6-0.2,2.8-1.7,2.7-3.4c-0.1-1.5-1.5-2.8-3.1-2.8c-1.4,0-2.9,0-4.3,0c-0.2,0-0.2,0.1-0.2,0.2
			C168.8,25.9,168.8,26.9,168.8,27.8z"/>
		<path class="st8" d="M87.1,6.6c0,1.8,0,3.5,0,5.3c0,3.3-2.2,5.9-5.4,6.5c-2.1,0.4-4.1,0.1-5.9-1.2c-1.6-1.1-2.4-2.7-2.6-4.6
			c0-0.3,0-0.7,0-1c0-3.5,0-7.1,0-10.6c0-0.5,0.2-0.6,0.6-0.6c0.5,0,0.9,0,1.4,0c0.6,0,0.7,0.1,0.7,0.7c0,1.3,0,2.6,0,4
			c0,2.3,0,4.5,0,6.8c0,1,0.3,1.9,0.9,2.7c0.7,0.9,1.6,1.3,2.6,1.5c1.1,0.1,2.2,0,3.2-0.6c1.3-0.8,1.9-2.1,1.9-3.5
			c0-3.6,0-7.2,0-10.8c0-0.6,0.1-0.7,0.7-0.7c0.5,0,0.9,0,1.4,0c0.4,0,0.6,0.2,0.6,0.6C87.1,2.8,87.1,4.7,87.1,6.6z"/>
		<path class="st7" d="M182.5,31.2c0-2.8,0-5.5,0-8.3c0-0.5,0.2-0.7,0.7-0.7c3.3,0,6.6,0,9.9,0c0.5,0,0.7,0.2,0.7,0.7
			c0,0.4,0,0.8,0,1.1c0,0.5-0.2,0.6-0.6,0.6c-2.5,0-5.1,0-7.6,0c-0.2,0-0.3,0-0.3,0.3c0,1.6,0,3.1,0,4.7c0,0.2,0.1,0.3,0.3,0.3
			c2.1,0,4.3,0,6.4,0c0.5,0,0.6,0.2,0.6,0.6c0,0.4,0,0.8,0,1.2c0,0.5-0.2,0.6-0.6,0.6c-2.1,0-4.2,0-6.4,0c-0.2,0-0.3,0.1-0.3,0.3
			c0,1.6,0,3.2,0,4.9c0,0.3,0.1,0.3,0.3,0.3c2.5,0,5.1,0,7.6,0c0.5,0,0.7,0.1,0.7,0.7c0,0.4,0,0.8,0,1.2c0,0.4-0.2,0.6-0.6,0.6
			c-3.4,0-6.7,0-10.1,0c-0.4,0-0.6-0.2-0.6-0.6C182.5,36.8,182.5,34,182.5,31.2z"/>
		<path class="st7" d="M135.3,31.2c0-2.8,0-5.5,0-8.3c0-0.5,0.1-0.7,0.7-0.7c3.3,0,6.6,0,9.9,0c0.5,0,0.7,0.1,0.7,0.7
			c0,0.4,0,0.7,0,1.1c0,0.5-0.2,0.6-0.6,0.6c-2.5,0-5.1,0-7.6,0c-0.2,0-0.3,0.1-0.3,0.3c0,1.5,0,3.1,0,4.6c0,0.2,0.1,0.3,0.3,0.3
			c2.1,0,4.3,0,6.4,0c0.5,0,0.6,0.2,0.6,0.6c0,0.4,0,0.8,0,1.2c0,0.4-0.2,0.6-0.6,0.6c-0.6,0-1.2,0-1.8,0c-1.5,0-3.1,0-4.6,0
			c-0.2,0-0.3,0-0.3,0.3c0,1.7,0,3.3,0,5c0,0.2,0.1,0.3,0.3,0.3c2.5,0,5,0,7.5,0c0.8,0,0.8,0.1,0.8,0.8c0,0.3,0,0.6,0,0.9
			c0,0.4-0.2,0.6-0.6,0.6c-3.3,0-6.7,0-10,0c-0.4,0-0.6-0.2-0.6-0.6C135.3,36.8,135.3,34,135.3,31.2z"/>
		<path class="st8" d="M131.7,18.6c-1.7,0-3.4-0.6-5-1.9c-0.1-0.1-0.2-0.2-0.3-0.3c-0.2-0.2-0.2-0.4-0.1-0.6
			c0.2-0.4,0.5-0.8,0.8-1.2c0.2-0.3,0.6-0.4,0.9-0.1c0.5,0.4,1,0.8,1.6,1.1c1.2,0.6,2.4,0.8,3.6,0.4c1.9-0.6,2.3-2.6,0.9-4
			c-0.6-0.6-1.4-1-2.2-1.4c-0.8-0.4-1.7-0.7-2.5-1.2c-0.9-0.5-1.8-1.1-2.4-2.1c-1.5-2.5-0.6-6.1,2.7-7.1c2.5-0.8,4.8-0.2,7,1.2
			c0.3,0.2,0.4,0.6,0.2,0.9c-0.2,0.3-0.4,0.7-0.7,1c-0.3,0.4-0.6,0.4-0.9,0.2c-0.8-0.5-1.5-1-2.4-1.1c-0.7-0.2-1.5-0.2-2.2,0.1
			c-1.8,0.6-2.2,2.6-0.9,3.9c0.7,0.7,1.6,1.1,2.4,1.4c1,0.4,1.9,0.8,2.8,1.3c0.9,0.6,1.7,1.2,2.2,2.2c1.2,2.3,0.3,5.1-2.1,6.4
			C134.2,18.3,133.2,18.6,131.7,18.6z"/>
		<path class="st7" d="M202,28.9c0.4-0.6,0.8-1.2,1.3-1.8c1.1-1.5,2.2-3.1,3.3-4.6c0.2-0.2,0.4-0.4,0.7-0.4c0.5,0,1.1,0,1.6,0
			c0.2,0,0.4,0,0.6,0.3c0.1,0.2,0,0.4-0.1,0.6c-1.9,2.6-3.7,5.3-5.6,7.9c-0.3,0.4-0.4,0.7-0.4,1.1c0,2.5,0,4.9,0,7.4
			c0,0.5-0.2,0.7-0.7,0.7c-0.5,0-0.9,0-1.4,0c-0.5,0-0.6-0.2-0.6-0.6c0-2.6,0-5.1,0-7.7c0-0.2,0-0.3-0.2-0.5
			c-1.9-2.7-3.8-5.4-5.7-8.2c0-0.1-0.1-0.1-0.1-0.2c-0.2-0.4,0-0.7,0.4-0.7c0.6,0,1.3,0,1.9,0c0.3,0,0.4,0.2,0.5,0.4
			c1,1.4,2,2.8,3,4.2c0.5,0.7,0.9,1.3,1.4,2C201.9,28.8,202,28.9,202,28.9z"/>
		<path class="st8" d="M63.3,10.3c0-2.4,0-4.9,0-7.3c0-0.3-0.1-0.3-0.3-0.3c-1.2,0-2.5,0-3.7,0c-0.5,0-0.6-0.2-0.6-0.6
			c0-0.4,0-0.8,0-1.2c0-0.4,0.2-0.6,0.6-0.6c3.6,0,7.2,0,10.9,0c0.4,0,0.6,0.2,0.6,0.6c0,0.4,0,0.8,0,1.3c0,0.4-0.2,0.6-0.6,0.6
			c-1.3,0-2.5,0-3.8,0C66,2.7,66,2.8,66,3c0,4.8,0,9.7,0,14.5c0,0.6-0.2,0.7-0.7,0.7c-0.4,0-0.8,0-1.3,0c-0.5,0-0.7-0.2-0.7-0.7
			C63.3,15.2,63.3,12.8,63.3,10.3z"/>
		<path class="st7" d="M125.4,32.2c0-2.4,0-4.8,0-7.3c0-0.3-0.1-0.3-0.3-0.3c-1.2,0-2.4,0-3.6,0c-0.6,0-0.7-0.1-0.7-0.7
			c0-0.4,0-0.7,0-1.1c0-0.4,0.2-0.6,0.6-0.6c3.6,0,7.2,0,10.8,0c0.4,0,0.6,0.2,0.6,0.6c0,0.4,0,0.8,0,1.2c0,0.4-0.2,0.6-0.6,0.6
			c-1.3,0-2.5,0-3.8,0c-0.3,0-0.3,0.1-0.3,0.3c0,4.8,0,9.7,0,14.5c0,0.6-0.1,0.7-0.7,0.7c-0.5,0-0.9,0-1.4,0c-0.4,0-0.6-0.2-0.6-0.6
			C125.4,37.1,125.4,34.7,125.4,32.2z"/>
		<path class="st7" d="M165,48.8c-0.1,0.5-0.2,1.1-0.3,1.6c-0.2,0.8-0.3,1.7-0.5,2.5c0,0,0,0.1,0,0.1c0,0.2-0.1,0.2-0.3,0.2
			c-0.2,0-0.1-0.2-0.1-0.3c0.2-0.9,0.4-1.8,0.5-2.7c0.2-0.8,0.3-1.5,0.5-2.3c0-0.1,0-0.2,0.2-0.2c0.1,0,0.1,0.1,0.2,0.2
			c0.5,1.4,0.9,2.8,1.4,4.1c0,0.1,0.1,0.2,0.1,0.3c0.1,0,0.1-0.1,0.1-0.2c0.5-1.4,0.9-2.7,1.4-4.1c0,0,0-0.1,0-0.1
			c0-0.1,0.1-0.2,0.2-0.2c0.1,0,0.1,0.1,0.1,0.2c0.1,0.5,0.2,1,0.3,1.5c0.2,1.1,0.5,2.3,0.7,3.4c0,0.1,0.1,0.3-0.1,0.3
			c-0.2,0.1-0.3-0.1-0.3-0.3c-0.3-1.3-0.5-2.7-0.8-4c0-0.1,0-0.1-0.1-0.2c-0.2,0.5-0.3,0.9-0.5,1.3c-0.3,1-0.6,1.9-1,2.9
			c0,0.1,0,0.3-0.2,0.3c-0.2,0-0.2-0.2-0.2-0.3c-0.5-1.3-0.9-2.7-1.4-4C165.1,48.9,165.1,48.9,165,48.8
			C165.1,48.8,165,48.8,165,48.8z"/>
		<path class="st7" d="M190.8,48.7c-0.2,0.7-0.5,1.4-0.7,2.1c-0.3,0.8-0.5,1.5-0.8,2.3c0,0.1,0,0.2-0.2,0.2c-0.1,0-0.2-0.1-0.2-0.2
			c-0.5-1.4-0.9-2.7-1.4-4.1c0-0.1,0-0.1-0.1-0.2c-0.2,0.9-0.3,1.8-0.5,2.7c-0.1,0.5-0.2,1-0.3,1.5c0,0,0,0.1,0,0.1
			c0,0.1-0.2,0.1-0.3,0.1c-0.1,0-0.1-0.1-0.1-0.2c0.2-1.2,0.5-2.4,0.7-3.7c0.1-0.4,0.2-0.8,0.3-1.2c0-0.1,0-0.3,0.2-0.3
			c0.2,0,0.2,0.2,0.2,0.3c0.5,1.4,0.9,2.8,1.4,4.2c0,0.1,0.1,0.1,0.1,0.3c0.2-0.7,0.5-1.4,0.7-2c0.3-0.8,0.6-1.6,0.8-2.4
			c0-0.1,0-0.2,0.2-0.2c0.1,0,0.1,0.1,0.1,0.2c0.3,1.6,0.7,3.2,1,4.9c0,0.1,0.2,0.3-0.1,0.3c-0.2,0-0.3-0.1-0.3-0.3
			c-0.2-0.8-0.3-1.6-0.5-2.4C191.1,49.9,191,49.4,190.8,48.7z"/>
		<path class="st7" d="M106.2,48.6c0,1.1,0,2.2,0,3.3c0,0.4,0,0.7,0,1.1c0,0.1,0,0.2-0.2,0.2c-0.2,0-0.2-0.1-0.2-0.2
			c0-1.7,0-3.3,0-5c0-0.1,0-0.2,0.1-0.2c0.1,0,0.2,0,0.3,0.1c0.3,0.3,0.5,0.7,0.8,1c0.9,1.1,1.7,2.3,2.6,3.4c0,0,0.1,0.1,0.1,0.1
			c0.1-0.1,0-0.2,0-0.3c0-1.3,0-2.6,0-3.9c0-0.1,0-0.1,0-0.2c0-0.1,0.1-0.2,0.2-0.1c0.1,0,0.2,0.1,0.2,0.2c0,0.1,0,0.1,0,0.2
			c0,1.6,0,3.2,0,4.8c0,0.1,0.1,0.2-0.1,0.3c-0.2,0.1-0.2-0.1-0.3-0.2c-1.1-1.4-2.2-2.9-3.3-4.3C106.4,48.7,106.3,48.7,106.2,48.6
			C106.2,48.6,106.2,48.6,106.2,48.6z"/>
		<path class="st7" d="M175.4,50.5c0-0.8,0-1.6,0-2.4c0-0.2,0.1-0.3,0.3-0.3c0.6,0,1.2,0,1.8,0c0.8,0,1.5,0.5,1.7,1.3
			c0.1,0.8-0.3,1.5-1,1.8c-0.2,0.1-0.2,0.2-0.1,0.3c0.3,0.5,0.6,1.1,0.9,1.6c0,0.1,0.2,0.2,0,0.3c-0.1,0.1-0.3,0.1-0.4-0.1
			c-0.1-0.3-0.3-0.5-0.4-0.8c-0.2-0.3-0.4-0.7-0.5-1c-0.1-0.1-0.1-0.2-0.3-0.2c-0.4,0-0.9,0-1.3,0c-0.2,0-0.2,0.1-0.2,0.2
			c0,0.5,0,1,0,1.5c0,0.1,0,0.3-0.2,0.3c-0.2,0-0.2-0.1-0.2-0.3C175.4,52.1,175.4,51.3,175.4,50.5z M175.7,49.5c0,0.4,0,0.7,0,1.1
			c0,0.1,0,0.2,0.2,0.2c0.5,0,0.9,0,1.4,0c0.7,0,1.3-0.6,1.3-1.3c0-0.7-0.6-1.3-1.3-1.3c-0.5,0-0.9,0-1.4,0c-0.2,0-0.2,0-0.2,0.2
			C175.7,48.8,175.7,49.2,175.7,49.5z"/>
		<path class="st7" d="M115.6,48.6c0,0.2,0,0.4,0,0.7c0,1.2,0,2.4,0,3.6c0,0.1,0,0.1,0,0.2c0,0.1-0.1,0.1-0.2,0.1
			c-0.1,0-0.1,0-0.2-0.1c0-0.1,0-0.1,0-0.2c0-1.6,0-3.2,0-4.8c0-0.1-0.1-0.2,0.1-0.3c0.1,0,0.2,0.1,0.3,0.2c1.1,1.4,2.2,2.8,3.3,4.3
			c0.1,0.1,0.1,0.1,0.2,0.2c0.1-0.1,0-0.2,0-0.3c0-1.3,0-2.6,0-3.9c0-0.1,0-0.1,0-0.2c0-0.1,0.1-0.2,0.2-0.2c0.1,0,0.2,0.1,0.2,0.2
			c0,0,0,0.1,0,0.1c0,1.6,0,3.2,0,4.8c0,0.1,0.1,0.2-0.1,0.3c-0.1,0.1-0.2-0.1-0.3-0.2c-1.1-1.4-2.2-2.8-3.2-4.2
			C115.9,48.8,115.8,48.7,115.6,48.6C115.7,48.6,115.7,48.6,115.6,48.6z"/>
		<path class="st7" d="M101.8,53.3c-1.5,0-2.7-1.2-2.7-2.7c0-1.5,1.2-2.8,2.8-2.8c1.5,0,2.7,1.2,2.7,2.8
			C104.6,52.1,103.4,53.3,101.8,53.3z M99.4,50.6c0,1.3,1.1,2.4,2.4,2.4c1.3,0,2.4-1.1,2.4-2.4c0-1.3-1.1-2.4-2.4-2.4
			C100.5,48.2,99.4,49.2,99.4,50.6z"/>
		<path class="st7" d="M182.7,53.3c-1.5,0-2.7-1.2-2.8-2.7c0-1.5,1.2-2.7,2.7-2.8c1.5,0,2.8,1.2,2.8,2.8
			C185.5,52.1,184.3,53.3,182.7,53.3z M182.7,48.2c-1.3,0-2.4,1.1-2.4,2.4c0,1.3,1.1,2.4,2.4,2.4c1.3,0,2.4-1.1,2.4-2.4
			C185.1,49.2,184.1,48.2,182.7,48.2z"/>
		<path class="st7" d="M149.3,50.6c0,1.5-1.2,2.7-2.7,2.7c-1.5,0-2.8-1.2-2.8-2.7c0-1.5,1.2-2.8,2.8-2.8
			C148.1,47.8,149.3,49,149.3,50.6z M146.6,48.2c-1.3,0-2.4,1.1-2.4,2.4c0,1.3,1.1,2.4,2.4,2.4c1.3,0,2.4-1.1,2.4-2.4
			C149,49.2,147.9,48.2,146.6,48.2z"/>
		<path class="st7" d="M81.6,50.6c0,1.5-1.2,2.7-2.8,2.7c-1.5,0-2.7-1.2-2.7-2.8c0-1.5,1.2-2.7,2.7-2.7C80.4,47.8,81.6,49,81.6,50.6
			z M78.9,48.2c-1.3,0-2.4,1-2.4,2.4c0,1.3,1.1,2.4,2.4,2.4c1.3,0,2.4-1.1,2.4-2.4C81.3,49.2,80.2,48.2,78.9,48.2z"/>
		<path class="st7" d="M163,50.6c0,1.5-1.2,2.7-2.8,2.7c-1.5,0-2.7-1.2-2.7-2.7c0-1.5,1.2-2.7,2.7-2.7C161.8,47.8,163,49,163,50.6z
			 M157.9,50.5c0,1.3,1.1,2.4,2.4,2.4c1.3,0,2.4-1.1,2.4-2.4c0-1.3-1.1-2.4-2.4-2.4C158.9,48.2,157.9,49.2,157.9,50.5z"/>
		<path class="st7" d="M204.6,50.6c0,1.5-1.2,2.7-2.7,2.7c-1.6,0-2.8-1.2-2.8-2.7c0-1.5,1.2-2.8,2.7-2.8
			C203.3,47.8,204.6,49,204.6,50.6z M204.2,50.6c0-1.3-1.1-2.4-2.4-2.4c-1.3,0-2.4,1.1-2.4,2.4c0,1.3,1.1,2.4,2.4,2.4
			C203.1,52.9,204.2,51.9,204.2,50.6z"/>
		<path class="st7" d="M139.2,50.5c0-0.8,0-1.5,0-2.3c0-0.3,0.1-0.3,0.3-0.3c0.5,0,1.1,0,1.6,0c0.8,0,1.5,0.5,1.7,1.2
			c0.2,0.8-0.2,1.6-1,1.9c-0.2,0.1-0.2,0.1-0.1,0.3c0.3,0.5,0.6,1.1,0.9,1.6c0,0.1,0.2,0.2,0,0.3c-0.1,0.1-0.3,0.1-0.4-0.1
			c-0.1-0.1-0.1-0.2-0.2-0.3c-0.3-0.5-0.5-0.9-0.8-1.4c-0.1-0.1-0.1-0.2-0.3-0.2c-0.4,0-0.8,0-1.2,0c-0.2,0-0.3,0-0.2,0.2
			c0,0.5,0,1,0,1.5c0,0.1,0.1,0.3-0.2,0.3c-0.2,0-0.2-0.2-0.2-0.3C139.2,52.1,139.2,51.3,139.2,50.5z M139.6,49.5c0,0.4,0,0.7,0,1.1
			c0,0.2,0,0.3,0.2,0.2c0.5,0,0.9,0,1.4,0c0.7,0,1.3-0.6,1.3-1.3c0-0.7-0.5-1.3-1.3-1.3c-0.5,0-1,0-1.5,0c-0.1,0-0.2,0.1-0.2,0.2
			C139.6,48.8,139.6,49.1,139.6,49.5z"/>
		<path class="st7" d="M126.7,50.5c0-0.8,0-1.6,0-2.4c0-0.2,0.1-0.3,0.3-0.3c0.9,0,1.8,0,2.7,0c0.1,0,0.3,0,0.3,0.2
			c0,0.2-0.2,0.1-0.3,0.1c-0.8,0-1.6,0-2.3,0c-0.2,0-0.3,0.1-0.2,0.2c0,0.5,0,1.1,0,1.6c0,0.2,0,0.3,0.3,0.3c0.6,0,1.3,0,1.9,0
			c0.1,0,0.1,0,0.2,0c0.1,0,0.2,0.1,0.2,0.2c0,0.1-0.1,0.2-0.2,0.2c-0.6,0-1.2,0-1.7,0c-0.5,0-0.5,0-0.5,0.6c0,0.5,0,0.9,0,1.4
			c0,0.2,0,0.3,0.3,0.3c0.8,0,1.5,0,2.3,0c0.1,0,0.3,0,0.3,0.2c0,0.2-0.2,0.2-0.3,0.2c-0.9,0-1.8,0-2.7,0c-0.2,0-0.3-0.1-0.3-0.3
			C126.7,52.1,126.7,51.3,126.7,50.5z"/>
		<path class="st7" d="M121.1,49.8c0-0.5,0-1,0-1.6c0-0.2-0.1-0.4,0.2-0.4c0.3,0,0.2,0.2,0.2,0.4c0,1,0,2,0,3c0,0.9,0.4,1.5,1.2,1.6
			c1.1,0.3,2.1-0.4,2.1-1.6c0-1,0-2.1,0-3.1c0-0.1,0-0.3,0.2-0.3c0.2,0,0.2,0.1,0.2,0.3c0,1.1,0,2.1,0,3.2c0,1-0.6,1.7-1.5,1.9
			c-1,0.2-1.9-0.2-2.3-1c-0.1-0.3-0.2-0.6-0.2-0.9C121.1,50.8,121.1,50.3,121.1,49.8z"/>
		<path class="st7" d="M64.9,49.8c0-0.6,0-1.1,0-1.7c0-0.1,0-0.3,0.2-0.3c0.2,0,0.2,0.1,0.2,0.3c0,1.1,0,2.2,0,3.3
			c0,0.9,0.7,1.5,1.6,1.5c0.9,0,1.6-0.6,1.6-1.6c0-1.1,0-2.1,0-3.2c0-0.1,0-0.3,0.2-0.3c0.2,0,0.2,0.1,0.2,0.3c0,1.1,0,2.2,0,3.2
			c0,1.1-0.8,1.9-2,1.9c-1.1,0-1.9-0.8-1.9-1.9C64.9,50.9,64.9,50.3,64.9,49.8z"/>
		<path class="st7" d="M90.1,49.8c0-0.5,0-1.1,0-1.6c0-0.1,0-0.3,0.2-0.3c0.2,0,0.2,0.1,0.2,0.3c0,1.1,0,2.2,0,3.3
			c0,1.1-0.8,1.9-1.9,1.9c-1.2,0-2.1-0.7-2.1-1.8c0-1.1,0-2.2,0-3.3c0-0.1,0-0.2,0.2-0.2c0.2,0,0.2,0.1,0.2,0.3c0,1,0,2.1,0,3.1
			c0,1.4,1.3,2,2.3,1.6c0.6-0.2,0.9-0.7,0.9-1.3C90.1,50.9,90,50.3,90.1,49.8C90,49.8,90,49.8,90.1,49.8z"/>
		<path class="st7" d="M170.8,50.6c0-0.8,0-1.6,0-2.4c0-0.2,0.1-0.3,0.3-0.3c0.5,0,1.1,0,1.6,0c1,0.1,1.6,0.8,1.5,1.8
			c0,0.9-0.8,1.6-1.7,1.6c-0.4,0-0.8,0-1.2,0c-0.2,0-0.2,0-0.2,0.2c0,0.5,0,0.9,0,1.4c0,0.1,0,0.3-0.2,0.3c-0.2,0-0.2-0.1-0.2-0.3
			C170.8,52.2,170.8,51.4,170.8,50.6z M171.2,49.6c0,0.4,0,0.8,0,1.2c0,0.1,0,0.2,0.2,0.2c0.4,0,0.8,0,1.3,0c0.7,0,1.3-0.6,1.3-1.4
			c0-0.7-0.6-1.3-1.3-1.3c-0.4,0-0.8,0-1.2,0c-0.2,0-0.2,0.1-0.2,0.2C171.2,48.8,171.2,49.2,171.2,49.6z"/>
		<path class="st7" d="M91.6,50.5c0.1-1.1,0.6-2,1.6-2.5c1-0.5,2-0.4,2.9,0.3c0.1,0.1,0.2,0.1,0.2,0.3c-0.1,0.2-0.2,0.2-0.4,0.1
			c-0.5-0.4-1.1-0.6-1.8-0.5c-1.1,0.1-2,1.2-2,2.4c0,1.2,0.9,2.2,2,2.4c0.7,0.1,1.3-0.1,1.8-0.5c0.1-0.1,0.2-0.2,0.4-0.1
			c0.2,0.2,0,0.3-0.2,0.4c-0.9,0.7-1.9,0.8-2.8,0.3C92.2,52.5,91.7,51.7,91.6,50.5z"/>
		<path class="st7" d="M154.9,53.3c-1.2,0-2.3-0.8-2.6-1.9c-0.4-1.1,0.1-2.4,1-3.1c1-0.7,2.3-0.7,3.2,0c0,0,0.1,0.1,0.1,0.1
			c0.1,0.1,0.1,0.2,0.1,0.3c-0.1,0.1-0.2,0.1-0.3,0c-0.4-0.3-0.8-0.5-1.4-0.5c-1.2-0.1-2.4,0.9-2.5,2.1c-0.1,1.3,0.8,2.5,2,2.6
			c0.7,0.1,1.2-0.1,1.7-0.5c0.1,0,0.1-0.1,0.2-0.1c0.1,0,0.2,0,0.2,0.1c0.1,0.1,0,0.2-0.1,0.3C156.1,53.1,155.5,53.3,154.9,53.3z"/>
		<path class="st7" d="M132.5,53.3c-0.7,0-1.2-0.2-1.6-0.5c-0.1-0.1-0.2-0.2-0.1-0.3c0.1-0.1,0.2-0.1,0.3,0c0.5,0.4,1.1,0.6,1.8,0.4
			c0.4-0.1,0.8-0.4,0.8-0.8c0.1-0.4-0.2-0.8-0.5-1c-0.3-0.2-0.6-0.3-0.9-0.4c-0.3-0.1-0.5-0.2-0.8-0.3c-0.5-0.3-0.8-0.7-0.7-1.3
			c0.1-0.6,0.4-0.9,0.9-1.1c0.7-0.2,1.3-0.1,1.9,0.2c0.1,0.1,0.2,0.1,0.1,0.3c-0.1,0.2-0.2,0.1-0.3,0c-0.5-0.3-1-0.4-1.6-0.2
			c-0.4,0.1-0.7,0.4-0.7,0.8c-0.1,0.4,0.2,0.8,0.5,1c0.3,0.2,0.7,0.3,1.1,0.4c0.3,0.1,0.5,0.2,0.7,0.4c0.9,0.6,0.8,1.8-0.2,2.3
			C133.1,53.2,132.7,53.3,132.5,53.3z"/>
		<path class="st7" d="M196.7,53.3c-0.6,0-1.1-0.2-1.6-0.5c-0.1-0.1-0.2-0.2-0.1-0.3c0.1-0.2,0.2,0,0.3,0c0.5,0.4,1.1,0.6,1.8,0.4
			c0.4-0.1,0.7-0.3,0.8-0.8c0.1-0.5-0.1-0.8-0.5-1c-0.3-0.2-0.7-0.3-1-0.4c-0.2-0.1-0.5-0.2-0.7-0.3c-0.5-0.3-0.7-0.7-0.7-1.3
			c0.1-0.6,0.4-0.9,0.9-1.1c0.7-0.2,1.3-0.1,1.9,0.2c0.1,0.1,0.2,0.1,0.1,0.3c-0.1,0.2-0.2,0.1-0.3,0c-0.4-0.2-0.9-0.4-1.4-0.3
			c-0.5,0.1-0.8,0.4-0.9,0.8c-0.1,0.4,0.1,0.8,0.6,1c0.4,0.2,0.8,0.3,1.2,0.5c0.2,0.1,0.5,0.2,0.7,0.4c0.8,0.6,0.7,1.7-0.2,2.2
			C197.3,53.2,196.9,53.3,196.7,53.3z"/>
		<path class="st7" d="M73.6,53.3c-0.6,0-1-0.2-1.5-0.5c-0.1-0.1-0.3-0.1-0.1-0.3c0.1-0.2,0.2-0.1,0.3,0c0.5,0.4,1.1,0.6,1.7,0.4
			c0.4-0.1,0.7-0.3,0.8-0.8c0.1-0.5-0.1-0.8-0.5-1.1c-0.3-0.2-0.6-0.3-0.9-0.4c-0.2-0.1-0.5-0.2-0.7-0.3c-0.6-0.3-0.8-0.7-0.8-1.3
			c0.1-0.6,0.5-1.1,1.1-1.2c0.6-0.2,1.2-0.1,1.8,0.3c0.1,0.1,0.2,0.1,0.1,0.3c-0.1,0.1-0.2,0.1-0.3,0c-0.4-0.3-0.9-0.4-1.4-0.3
			c-0.5,0.1-0.8,0.4-0.9,0.8c-0.1,0.4,0.1,0.8,0.6,1c0.4,0.2,0.8,0.3,1.2,0.5c0.2,0.1,0.5,0.2,0.7,0.4c0.8,0.6,0.7,1.7-0.2,2.2
			C74.3,53.2,74,53.3,73.6,53.3z"/>
		<path class="st7" d="M62.3,50.7c0,0.7,0,1.5,0,2.2c0,0.1,0,0.3-0.2,0.3c-0.2,0-0.2-0.1-0.2-0.3c0-1.5,0-2.9,0-4.4
			c0-0.3-0.1-0.3-0.3-0.3c-0.3,0-0.7,0-1,0c-0.1,0-0.2,0-0.2-0.2c0-0.1,0.1-0.2,0.2-0.2c1,0,2,0,3.1,0c0.1,0,0.2,0,0.2,0.2
			c0,0.2-0.1,0.2-0.2,0.2c-0.3,0-0.7,0-1,0c-0.3,0-0.3,0.1-0.3,0.3C62.3,49.3,62.3,50,62.3,50.7z"/>
		<path class="st7" d="M136.2,50.7c0-0.7,0-1.5,0-2.2c0-0.2,0-0.3-0.2-0.3c-0.4,0-0.7,0-1.1,0c-0.1,0-0.2,0-0.2-0.2
			c0-0.2,0.1-0.2,0.2-0.2c1,0,2.1,0,3.1,0c0.1,0,0.2,0,0.2,0.2c0,0.2-0.1,0.2-0.2,0.2c-0.4,0-0.7,0-1.1,0c-0.2,0-0.3,0.1-0.3,0.3
			c0,1.5,0,3,0,4.5c0,0.1,0,0.3-0.2,0.3c-0.2,0-0.2-0.1-0.2-0.3C136.2,52.2,136.2,51.4,136.2,50.7z"/>
		<path class="st7" d="M82.9,50.5c0-0.8,0-1.6,0-2.4c0-0.1,0-0.3,0.2-0.3c0.2,0,0.2,0.2,0.2,0.3c0,1.5,0,2.9,0,4.4
			c0,0.3,0.1,0.4,0.4,0.3c0.6,0,1.3,0,1.9,0c0.1,0,0.2-0.1,0.2,0.1c0,0.2-0.1,0.2-0.2,0.2c-0.8,0-1.6,0-2.4,0
			c-0.2,0-0.2-0.1-0.2-0.3C82.9,52.1,82.9,51.3,82.9,50.5z"/>
		<path class="st7" d="M193.7,50.6c0,0.8,0,1.6,0,2.4c0,0.1,0,0.3-0.2,0.3c-0.2,0-0.2-0.1-0.2-0.3c0-1.6,0-3.2,0-4.8
			c0-0.1,0-0.3,0.2-0.3c0.2,0,0.2,0.1,0.2,0.3C193.7,49,193.7,49.8,193.7,50.6z"/>
		<path class="st7" d="M97.8,50.6c0,0.8,0,1.6,0,2.4c0,0.1,0,0.3-0.2,0.3c-0.2,0-0.2-0.1-0.2-0.3c0-1.6,0-3.2,0-4.8
			c0-0.1,0-0.2,0.2-0.3c0.2,0,0.2,0.1,0.2,0.3C97.8,49,97.8,49.8,97.8,50.6z"/>
		<path class="st7" d="M102.7,46.6c0,0.1-0.1,0.1-0.1,0.2c-0.4,0.2-0.8,0.3-1.1,0.5c-0.1,0-0.2,0.1-0.2,0c0-0.1,0-0.2,0.1-0.2
			c0.4-0.2,0.7-0.4,1.1-0.6C102.5,46.3,102.6,46.4,102.7,46.6z"/>
		<path class="st7" d="M112.1,53c0,0.2-0.1,0.3-0.3,0.3c-0.2,0-0.3-0.1-0.3-0.3c0-0.2,0.1-0.3,0.3-0.3C112,52.6,112.1,52.8,112.1,53
			z"/>
		<g>
			<path class="st7" d="M26.5,0.4C41.2,0.5,53.1,12.3,53,27c0,14.6-11.9,26.4-26.5,26.4C11.8,53.4-0.3,41.3,0,26.3
				C0.3,12.1,12,0.5,26.5,0.4z M26.5,1.6C12.7,1.6,1.4,12.8,1.2,26.6C1,40.8,12.5,52,26.1,52.2c14.1,0.2,25.5-11.1,25.8-24.8
				C52.1,13.3,40.7,1.6,26.5,1.6z"/>
			<path class="st7" d="M46.1,26.6c0,10.8-8.9,19.6-19.9,19.4C15.5,45.7,6.8,37.1,7,26.3c0.1-10.5,8.9-19.4,20-19.2
				C37.5,7.3,46,15.9,46.1,26.6z M9.8,33.5c0.1,0,0.1,0,0.2,0c2.4-1,4.8-2.1,7.2-3.1c0.1-0.1,0.2-0.1,0.3-0.2c1-0.9,1.9-1.8,2.9-2.7
				c1.2-1.1,2.4-2.3,3.6-3.3c1.4-1.2,2.9-2.2,3.8-4c0,0.1,0,0.1,0,0.2c0.1,1.1,0.3,2.2,0.5,3.2c0.4,1.8,1.1,3.4,2.4,4.7
				c0.2,0.2,0.3,0.4,0.3,0.7c0.1,1.2,0.5,2.2,1,3.3c0.6,1.2,1.3,2.4,2,3.6c0.2,0.4,0.4,0.8,0.7,1.2c1.1,1.4,2.6,2,4.2,2.5
				c0,0,0-0.1,0-0.1c-0.8-1-1.1-2.2-1.2-3.5c-0.1-1-0.2-2-0.5-3c-0.2-0.7-0.6-1.3-1.2-1.7c-0.3-0.2-0.4-0.1-0.5,0.1
				c-0.1,0.6-0.4,1.2-0.5,1.8c-0.1,0.6-0.3,1.2-0.5,1.9c-0.6-1.1-1.1-2.3-0.9-3.5c0-0.3-0.1-0.5-0.3-0.7c-1.4-1.1-2.2-2.6-2.3-4.4
				c-0.1-1.6,0.3-3.1,0.7-4.6c0.1-0.2,0.1-0.1,0.2-0.1c0.4,0.3,0.8,0.5,1.2,0.8c0.6,0.4,1.1,0.9,1.8,1.2c0.6,0.4,1.2,0.4,1.9,0.1
				c1-0.5,2.1-0.6,3.3-0.4c0.9,0.2,1.8,0.5,2.7,0.9c0.3,0.1,0.6,0.2,0.9,0.3c0.5,0,0.8-0.2,0.8-0.7c0-0.1,0-0.3,0-0.4
				c0-0.4-0.1-0.8-0.2-1.2c-1.2-4.7-3.7-8.4-7.9-11.1c-3.5-2.2-7.4-3.2-11.5-2.8c-2.5,0.3-4.9,1-7.1,2.3c-3.7,2.1-6.4,5-7.9,9
				c-0.2,0.5-0.4,1.1-0.4,1.6c0,0.4,0.1,0.6,0.5,0.7c0.8,0.1,1.6,0.2,2.3-0.4c0.3-0.2,0.6-0.4,0.9-0.6c0.5-0.2,1-0.3,1.4,0
				c0.8,0.6,1.6,1,2.5,1.5c0.7,0.4,1.4,0.9,2,1.6c0.1,0.1,0.1,0.2,0,0.3c-0.5,0.4-1.1,0.7-1.6,1.2c-1.4,1.3-2.7,2.6-4.1,3.9
				c-0.1,0.1-0.2,0.2-0.1,0.4c0.1,0.6,0,1-0.5,1.4c-0.3,0.2-0.7,0.4-1.1,0.5c-0.3,0.1-0.6,0.1-0.8,0.2C10.1,32.5,9.8,33,9.8,33.5z
				 M21.5,34.5c-0.3,0.2-0.6,0.4-0.9,0.6c-0.3,0.2-0.5,0.4-0.6,0.6c-0.4,0.6-0.8,1.2-1.2,1.8c-0.1,0.2-0.3,0.1-0.4,0
				c-0.2,0-0.1-0.2-0.1-0.3c0.3-1.1,0.7-2.1,0.9-3.2c0.2-0.7,0.5-1.4,0.8-2c0.1-0.2,0.3-0.5,0.4-0.7c0.2-0.5,0.3-1.1,0.2-1.7
				c0-0.2-0.1-0.3-0.3-0.3c-0.1,0-0.6,0.3-0.6,0.4c0,0.3-0.2,0.6-0.3,0.9c-1.2,3.2-2.2,6.5-3.4,9.8c-0.1,0.3-0.1,0.5,0,0.8
				c0.4,0.7,1.3,0.8,1.8,0.2c0.2-0.2,0.4-0.5,0.6-0.7c0.7-0.7,1.3-1.5,1.7-2.4C20.7,37.1,21.1,35.9,21.5,34.5z M23.8,44.1
				c0.6-1.1,1.4-1.9,2.4-2.7c0.8-0.7,1.6-1.3,2.2-2.1c0.3-0.4,0.5-0.8,0.6-1.2c-0.2,0.2-0.4,0.4-0.6,0.6c-0.9,0.9-1.8,1.7-3,2.3
				c-0.2,0.1-0.5,0.2-0.7,0c-0.2-0.2-0.3-0.4-0.2-0.7c0.1-0.4,0.3-0.9,0.5-1.2c0.3-0.5,0.6-1,0.9-1.5c0.3-0.4,0.4-0.9,0.4-1.5
				c-0.2,0.1-0.3,0.2-0.4,0.3c-0.4,0.3-0.6,0.8-0.9,1.2c-0.3,0.5-0.5,1.1-0.9,1.6c-0.2,0.2-0.3,0.4-0.6,0.5c0-0.1,0-0.1,0-0.1
				c0-0.1,0-0.1,0-0.2c0-1.3,0.3-2.6,0.8-3.7c0.2-0.5,0.5-1,0.5-1.7c0-0.4,0.2-0.7,0.3-1.1c0.1-0.4,0-0.7-0.1-1
				c-0.5,0.7-0.9,1.5-1.2,2.3c-0.9,2-1.5,4.1-1.3,6.4C22.6,41.8,23,42.9,23.8,44.1z M36,24.7c1.4,3.6,4.3,5.7,7.6,7.4
				c0,0,0-0.1,0-0.1c0-0.1,0-0.1-0.1-0.2c-0.4-0.8-0.9-1.4-1.5-1.9c-1.7-1.3-3.3-2.6-4.8-4.1C36.8,25.5,36.4,25.1,36,24.7z M35.4,29
				c-0.5-2.1-1.5-3.9-3.3-5.3C32.9,25.7,33.9,27.4,35.4,29z"/>
			<path class="st7" d="M18.7,47.1c-0.5,0.5-1.1,1.1-1.6,1.6c-0.1,0.1-0.2,0.2-0.3,0.1c-0.2-0.1-0.1-0.2-0.1-0.3
				c0.1-0.7,0.2-1.5,0.3-2.2c0,0,0-0.1,0-0.1c-0.3,0.5-0.6,1.1-0.9,1.6c-0.1,0.1-0.1,0.2-0.2,0.3c-0.1,0.2-0.1,0.2-0.3,0.1
				c-0.2-0.1-0.1-0.1-0.1-0.3c0.4-0.8,0.9-1.6,1.3-2.3c0-0.1,0.1-0.3,0.2-0.2c0.1,0.1,0.4,0.1,0.4,0.4c-0.1,0.7-0.1,1.5-0.3,2.2
				c0,0.1,0,0.1-0.1,0.1c0.3-0.3,0.6-0.5,0.9-0.8c0.3-0.3,0.5-0.5,0.8-0.8c0.2-0.2,0.4-0.2,0.6,0c0.1,0.1,0,0.1,0,0.2
				c-0.3,0.9-0.7,1.7-1,2.6c-0.1,0.1-0.1,0.1-0.2,0.1c-0.1-0.1-0.2-0.1-0.1-0.3C18.2,48.5,18.5,47.8,18.7,47.1
				C18.8,47.1,18.8,47.1,18.7,47.1C18.7,47,18.7,47.1,18.7,47.1z"/>
			<path class="st7" d="M10.9,9.2c0.9,0,2.1,1.2,1.4,2.3c-0.2,0.4-0.6,0.7-0.9,1c-0.1,0.1-0.1,0.1-0.2,0c-0.6-0.7-1.3-1.3-1.9-1.9
				c-0.1-0.1-0.1-0.2,0-0.3c0.3-0.3,0.5-0.6,0.8-0.8C10.3,9.3,10.6,9.2,10.9,9.2z M10.9,9.6c-0.5,0-0.8,0.3-1.1,0.6
				c-0.1,0.1-0.1,0.2,0,0.4c0.4,0.4,0.8,0.8,1.2,1.2c0.4,0.4,0.4,0.4,0.8,0c0.3-0.4,0.4-0.8,0.2-1.2C11.8,10,11.4,9.7,10.9,9.6z"/>
			<path class="st7" d="M23.1,4.7c0,0.7-0.3,1.1-0.9,1.4c-0.4,0.2-0.8,0.2-1.2,0.3c-0.1,0-0.2,0-0.2-0.2c-0.2-0.9-0.4-1.8-0.6-2.7
				c0-0.1,0-0.2,0.1-0.2c0.4-0.1,0.9-0.3,1.3-0.2c0.8,0,1.3,0.6,1.4,1.4C23.1,4.5,23.1,4.6,23.1,4.7z M21.6,3.4
				c-0.2,0-0.4,0-0.7,0.1c-0.1,0-0.2,0.1-0.1,0.2c0.2,0.7,0.3,1.4,0.4,2.1C21.2,6,21.3,6,21.4,6c1-0.1,1.5-0.6,1.2-1.8
				C22.5,3.7,22.1,3.4,21.6,3.4z"/>
			<path class="st7" d="M38.1,47.1c0,0.6-0.3,1-0.9,1.3c-0.5,0.2-1,0.2-1.4-0.2c-0.5-0.4-0.7-1-0.7-1.6c0-0.6,0.4-1,0.9-1.2
				c0.5-0.2,1-0.1,1.4,0.3C37.9,46.1,38.1,46.5,38.1,47.1z M35.5,46.6c0.1,0.5,0.3,1,0.8,1.3c0.5,0.3,1.2,0,1.3-0.6
				c0.1-0.5-0.2-1.2-0.7-1.6c-0.3-0.2-0.6-0.3-1-0.1C35.7,45.9,35.5,46.2,35.5,46.6z"/>
			<path class="st7" d="M44,10.6c0,0,0,0.1,0,0.2c-0.3,0.7-0.8,1.3-1.5,1.5c-0.7,0.2-1.3-0.3-1.2-1.1c0.1-0.7,1-1.5,1.6-1.6
				C43.5,9.6,44,10,44,10.6z M43.1,10.1c0,0-0.1,0-0.1,0c-0.5,0.1-1.3,1-1.4,1.5c-0.1,0.4,0.3,0.6,0.6,0.5c0.6-0.3,1.1-0.8,1.3-1.4
				C43.7,10.3,43.5,10.1,43.1,10.1z"/>
			<path class="st7" d="M39.2,8.1c0.2,0,0.5,0,0.6,0.1c0.4,0.2,0.6,0.7,0.4,1.1c-0.2,0.5-0.7,0.8-1.2,0.7c-0.6-0.1-0.9-0.7-0.8-1.3
				c0.3-1.2,1.5-1.8,2.6-1.2c0.1,0,0.2,0,0.1,0.2c-0.1,0.1-0.1,0.2-0.3,0.1C40.1,7.6,39.6,7.7,39.2,8.1z M38.6,9.1
				c0,0.3,0.2,0.6,0.6,0.6c0.3,0,0.7-0.4,0.7-0.8c0-0.3-0.3-0.6-0.6-0.6C38.9,8.4,38.6,8.7,38.6,9.1z"/>
			<path class="st7" d="M25.7,49.6c-0.2,0.3-0.4,0.6-0.5,0.9c-0.2,0.3-0.2,0.3-0.7,0.3c0.2-0.3,0.3-0.6,0.6-0.9
				c0.4-0.5,0.4-0.9,0-1.4c-0.2-0.2-0.3-0.5-0.4-0.7c-0.1-0.1,0-0.1,0.1-0.1c0.2,0,0.4,0,0.5,0.3c0.1,0.3,0.3,0.6,0.5,1
				c0.2-0.3,0.4-0.6,0.6-0.9c0.1-0.3,0.3-0.4,0.6-0.2c-0.3,0.4-0.5,0.9-0.8,1.3c-0.1,0.1-0.1,0.2,0,0.4c0.3,0.5,0.5,0.9,0.8,1.4
				c-0.3,0.1-0.5,0-0.6-0.3C26.1,50.2,25.9,49.9,25.7,49.6z"/>
			<path class="st7" d="M36.5,7.1c-0.1,0-0.3,0-0.4,0c-0.5-0.1-0.8-0.5-0.7-1c0-0.5,0.5-0.9,1-0.9c0.5,0,1,0.3,1,0.7
				c0.1,0.7-0.2,1.3-0.8,1.7c-0.5,0.4-1,0.4-1.6,0.2c-0.1,0-0.2-0.1-0.1-0.2c0.1-0.1,0.1-0.2,0.2-0.1C35.7,7.7,36.1,7.6,36.5,7.1
				C36.5,7.1,36.5,7.1,36.5,7.1C36.5,7.1,36.5,7.1,36.5,7.1z M36.9,6c0-0.3-0.2-0.6-0.6-0.6c-0.3,0-0.7,0.4-0.7,0.8
				c0,0.3,0.3,0.6,0.6,0.6C36.7,6.8,36.9,6.5,36.9,6z"/>
			<path class="st7" d="M21.5,48.4c0,0.1,0.1,0.1,0.1,0.1c0.3,0.1,0.5,0.1,0.8,0.2c0.1,0,0.2,0.1,0.2,0.2c0,0.2-0.1,0.1-0.2,0.1
				c-0.3-0.1-0.5-0.1-0.8-0.2c-0.2,0-0.2,0-0.2,0.2c0,0.2-0.1,0.5-0.1,0.7c0,0.2,0,0.2,0.2,0.2c0.3,0.1,0.6,0.1,0.9,0.2
				c0.1,0,0.2,0,0.2,0.2c0,0.2-0.1,0.2-0.2,0.1c-0.4-0.1-0.9-0.2-1.3-0.3c-0.2,0-0.2-0.1-0.2-0.3c0.2-0.9,0.4-1.8,0.6-2.7
				c0-0.2,0.1-0.2,0.2-0.2c0.4,0.1,0.9,0.2,1.3,0.3c0.2,0,0.1,0.1,0.1,0.2c0,0.2-0.1,0.1-0.2,0.1c-0.3-0.1-0.6-0.1-0.9-0.2
				c-0.1,0-0.2,0-0.2,0.1C21.6,48,21.5,48.2,21.5,48.4z"/>
			<path class="st7" d="M14.1,6.2c0.1,0,0.1,0.1,0.2,0.2c0.1,0.1,0,0.1-0.1,0.1C14,6.7,13.8,6.9,13.5,7c-0.1,0.1-0.2,0.2-0.1,0.3
				c0.2,0.2,0.2,0.5,0.4,0.5c0.2,0,0.4-0.2,0.6-0.4c0.1-0.1,0.2-0.1,0.2-0.2c0.1-0.1,0.2-0.1,0.2,0c0.1,0.1,0.1,0.2,0,0.2
				c-0.2,0.2-0.5,0.3-0.7,0.5c-0.1,0.1-0.1,0.1-0.1,0.2c0.2,0.2,0.3,0.4,0.5,0.7c0.1,0.1,0.1,0.1,0.2,0c0.3-0.2,0.5-0.4,0.8-0.5
				c0.1-0.1,0.2-0.2,0.3,0C16,8.7,16,8.7,15.8,8.8c-0.4,0.3-0.8,0.5-1.1,0.8c-0.1,0.1-0.2,0.1-0.3-0.1c-0.5-0.8-1.1-1.5-1.6-2.3
				c-0.1-0.1-0.1-0.1,0-0.2C13.3,6.8,13.6,6.5,14.1,6.2C14.1,6.2,14.1,6.2,14.1,6.2z"/>
			<path class="st7" d="M25.3,4.3c0-0.5,0-0.9,0-1.4c0-0.2,0-0.2,0.2-0.2c0.4,0,0.9,0,1.3,0c0.1,0,0.2,0,0.2,0.2
				c0,0.2,0,0.2-0.2,0.2c-0.3,0-0.6,0-0.9,0c-0.2,0-0.2,0.1-0.2,0.2c0,0.2,0,0.4,0,0.6C25.7,4,25.8,4,25.9,4c0.3,0,0.5,0,0.8,0
				c0.1,0,0.2,0,0.2,0.2c0,0.1-0.1,0.2-0.2,0.2c-0.3,0-0.6,0-0.9,0c-0.1,0-0.2,0-0.2,0.2c0,0.2,0,0.5,0,0.7c0,0.1,0,0.2,0.2,0.2
				c0.3,0,0.6,0,0.9,0c0.2,0,0.2,0.1,0.2,0.2c0,0.2-0.1,0.1-0.2,0.1c-0.5,0-0.9,0-1.4,0c-0.1,0-0.2,0-0.2-0.2
				C25.2,5.2,25.2,4.7,25.3,4.3C25.3,4.3,25.3,4.3,25.3,4.3z"/>
			<path class="st7" d="M17.5,6.1c-0.1,0-0.3,0-0.5,0c-0.6-0.2-0.8-0.8-0.4-1.2c0.2-0.3,0.6-0.5,1-0.5c0.2,0,0.1,0.1,0.2,0.2
				c0,0.1,0,0.2-0.1,0.2c-0.2,0-0.4,0.1-0.6,0.2c-0.2,0.1-0.3,0.3-0.2,0.5c0,0.2,0.2,0.3,0.4,0.4c0.2,0,0.3,0,0.5,0
				c0.7,0,1.1,0.3,1.1,0.9c0,0.3-0.2,0.5-0.5,0.7c-0.2,0.2-0.5,0.2-0.8,0.3c-0.2,0-0.2-0.1-0.3-0.2c0-0.2,0.1-0.1,0.2-0.1
				c0.3,0,0.5-0.1,0.7-0.2c0.2-0.1,0.3-0.3,0.2-0.6c-0.1-0.2-0.2-0.4-0.5-0.4C17.9,6.1,17.7,6.1,17.5,6.1z"/>
			<path class="st7" d="M31.3,48.3c0-0.8,0.6-1.4,1.4-1.6c0.1,0,0.2,0,0.4,0c0.1,0,0.2,0.1,0.2,0.2c0,0.1,0,0.2-0.2,0.2
				c-0.1,0-0.2,0-0.3,0c-0.5,0.1-0.9,0.3-1,0.8c-0.1,0.5,0,1,0.4,1.4c0.4,0.4,0.9,0.4,1.5,0.1c0.1-0.1,0.2-0.2,0.3,0
				c0.1,0.2-0.1,0.2-0.2,0.3c-0.4,0.2-0.8,0.3-1.2,0.3C31.8,49.9,31.3,49.2,31.3,48.3z"/>
			<path class="st7" d="M32.6,4.2c-0.2,0-0.3,0.1-0.4,0.1c-0.1,0-0.2,0.1-0.2,0C32,4.1,32,4,32.1,4c0.3-0.1,0.6-0.2,0.9-0.1
				c0.1,0,0.1,0.1,0.1,0.2c-0.3,0.9-0.5,1.7-0.7,2.6c-0.1,0.2-0.2,0.1-0.2,0.1c-0.2,0-0.2-0.1-0.1-0.3c0.2-0.7,0.4-1.4,0.6-2.1
				C32.6,4.3,32.6,4.3,32.6,4.2z"/>
			<path class="st7" d="M29,47.6c0.2,0,0.2,0,0.2,0.1c0.1,0.9,0.2,1.9,0.3,2.8c0,0.2-0.1,0.1-0.2,0.2c-0.1,0-0.2,0-0.2-0.1
				c-0.1-0.9-0.2-1.9-0.3-2.8C28.7,47.5,28.9,47.6,29,47.6z"/>
			<path class="st7" d="M44.8,13.7c0,0.2-0.1,0.3-0.3,0.3c-0.2,0-0.3-0.1-0.3-0.3c0-0.2,0.1-0.3,0.3-0.4
				C44.7,13.4,44.8,13.5,44.8,13.7z"/>
			<path class="st7" d="M40.1,46.3c-0.2,0-0.3-0.1-0.3-0.3c0-0.2,0.1-0.3,0.3-0.3c0.2,0,0.3,0.1,0.3,0.3
				C40.4,46.2,40.3,46.3,40.1,46.3z"/>
			<path class="st7" d="M23,46.8c-0.3,0.1-0.5,0.5-1,0.3C22.4,46.7,22.5,46.6,23,46.8z"/>
			<path class="st7" d="M21.7,24.9c-1.4,1.1-2.5,2.4-3.8,3.5c-1.1,1-2.3,1.9-3.8,2.2c-0.1,0-0.1,0-0.2,0c0,0-0.1,0-0.1,0
				C15,29.9,16,28.9,17,28c0.9-0.8,1.8-1.5,2.8-2.2C20.4,25.5,21,25.1,21.7,24.9z"/>
			<path class="st7" d="M36,33.2c0.2,0.2,0.3,0.4,0.3,0.6c0,0.1,0,0.3,0,0.4c-0.1,0.5-0.1,0.9,0.2,1.3c0.4,0.6,0.2,1.3,0.1,2
				c-0.5-0.6-1-1-1.1-1.8c0-0.3,0-0.7,0.1-1C35.8,34.2,35.9,33.7,36,33.2z"/>
		</g>
	</g>
</g>
</svg>
